<svg width="168" height="17" viewBox="0 0 168 17" xmlns="http://www.w3.org/2000/svg">
<path d="M11.5861 11.5995C10.6206 12.4163 9.33329 12.7431 8.20683 12.7431C5.47125 12.9065 3.54018 10.7826 3.54018 8.1687C3.54018 5.06457 5.47125 3.26746 7.88506 3.26746C9.33329 3.26746 10.1379 3.75758 11.1034 4.24773L12.7125 1.63373C11.747 0.653494 9.97701 0 8.04585 0C2.73558 0 0 3.59421 0 8.1687C0 13.0698 3.21842 16.1739 8.04585 16.1739C10.1379 16.1739 12.2298 15.3571 13.0344 14.3769L11.5861 11.5995Z"/>
<path d="M26.23 0C21.4023 0 18.0231 3.59421 18.0231 8.1687C18.0231 13.0698 21.5633 16.1739 26.23 16.1739C30.8966 16.1739 34.4368 12.9065 34.4368 8.1687C34.4368 3.10409 30.8966 0 26.23 0ZM26.23 12.9065C23.8162 12.9065 21.7243 10.7826 21.7243 8.1687C21.7243 5.22795 23.6553 3.26746 26.23 3.26746C28.8047 3.26746 30.7356 5.06457 30.7356 8.00531C30.5748 10.7826 29.1265 12.9065 26.23 12.9065Z"/>
<path d="M48.9166 7.84193C50.3649 6.86171 50.8476 5.55472 50.8476 4.41112C50.8476 1.63373 48.9166 0 46.0201 0C43.7671 0 41.8362 1.14362 40.8707 2.61397L42.8016 4.90118C43.6062 3.75758 44.5717 3.26746 45.5373 3.26746C46.5028 3.26746 47.1464 3.75758 47.1464 4.7378C47.1464 5.71801 46.3419 6.20817 45.2155 6.20817H43.9281V9.63898H45.3764C46.9855 9.63898 47.7901 10.2925 47.7901 11.2727C47.7901 12.5797 46.5028 12.9065 45.5373 12.9065C44.25 12.9065 42.9626 12.0896 42.158 10.946L40.2269 13.3966C41.0316 14.7035 42.6408 16.1739 45.6983 16.1739C48.4338 16.1739 51.1694 14.3769 51.1694 11.5995C51.3304 9.80236 50.6867 8.33199 48.9166 7.84193Z"/>
<path d="M71.4495 12.5798V0.326855H61.4725L61.3115 3.43095C61.1507 8.49547 59.7024 11.7629 59.0587 12.5798H57.4496V15.8473H73.5414V12.5798H71.4495ZM67.9092 12.5798H62.9207C63.4036 11.9264 64.369 8.98562 64.53 6.20826L64.6909 3.59432H67.7483V12.5798H67.9092Z"/>
<path d="M87.8612 0.326855H84.6435L78.2064 16.0107H81.7467L83.034 12.7432H89.3102L90.5974 16.0107H94.2984L87.8612 0.326855ZM84.4818 9.31239L86.2524 4.90128L88.022 9.31239H84.4818Z"/>
<path d="M97.6769 0.326855V3.59432H102.344V15.8473H105.883V3.59432H110.549V0.326855H97.6769Z"/>
<path d="M120.527 9.63916H125.515V6.37165H120.527V3.59433H126.158V0.326855H116.987V16.0107H126.32V12.7432H120.527V9.63916Z"/>
<path d="M136.137 0.326855L135.976 3.43095C135.333 12.0897 134.044 12.5798 132.757 12.4164V16.0107C136.297 16.6642 138.389 14.8671 139.194 6.69842L139.516 3.75767H142.895V16.0107H146.435V0.326855H136.137Z"/>
<path d="M164.942 0.326855L158.183 10.1293V0.326855H154.643V16.0107H157.701L164.46 6.20826V16.0107H168V0.326855H164.942Z"/>
</svg>
