<svg xmlns="http://www.w3.org/2000/svg" version="1.1" xmlns:xlink="http://www.w3.org/1999/xlink" xmlns:svgjs="http://svgjs.com/svgjs" width="512" height="512" x="0" y="0" viewBox="0 0 512 512" style="enable-background:new 0 0 512 512" xml:space="preserve" class=""><g><path d="M45.176 0h421.647C491.774 0 512 20.226 512 45.176v421.647c0 24.95-20.226 45.176-45.176 45.176H45.176C20.226 512 0 491.774 0 466.824V45.176C0 20.226 20.226 0 45.176 0zm286.118 165.647h-60.235c-8.317 0-15.059-6.742-15.059-15.059s6.742-15.059 15.059-15.059h210.824V45.176c0-8.317-6.742-15.059-15.059-15.059H180.706v120.471c0 8.317-6.742 15.059-15.059 15.059s-15.059-6.742-15.059-15.059V30.118H45.176c-8.317 0-15.059 6.742-15.059 15.059V256h120.471v-15.059c0-8.317 6.742-15.059 15.059-15.059s15.059 6.742 15.059 15.059v60.235c0 8.317-6.742 15.059-15.059 15.059s-15.059-6.742-15.059-15.059v-15.059H30.118v180.706c0 8.317 6.742 15.059 15.059 15.059h105.412v-90.353c0-8.317 6.742-15.059 15.059-15.059s15.059 6.742 15.059 15.059v90.353h150.588v-75.294H271.06c-8.317 0-15.059-6.742-15.059-15.059s6.742-15.059 15.059-15.059h60.235v-45.176c0-8.317 6.742-15.059 15.059-15.059s15.059 6.742 15.059 15.059v150.588h105.412c8.317 0 15.059-6.742 15.059-15.059V165.647H361.412v75.294c0 8.317-6.742 15.059-15.059 15.059s-15.059-6.742-15.059-15.059z"   class=""></path></g></svg>
