<svg width="206" height="56" viewBox="0 0 206 56" xmlns="http://www.w3.org/2000/svg">
<path fill-rule="evenodd" clip-rule="evenodd" d="M60.9219 29.521V0H94.5671V6.94611H70.6899V11.0704H84.5821H94.5671V29.521H84.5821H60.9219ZM70.6899 21.9237V17.1482H87.1001V21.9237H70.6899Z"/>
<path fill-rule="evenodd" clip-rule="evenodd" d="M41.816 14.2395L53.7547 0.217065V0H42.4672L33.9148 10.8967H32.1349V0H23.0181V10.8967H21.2382L12.6858 0H1.39839V0.217065L13.337 14.2395L0.747192 29.3039V29.521H12.816L21.3684 18.7111H23.0181V29.521H32.1349V18.7111H33.7846L42.337 29.521H54.4059V29.3039L41.816 14.2395ZM105.436 29.521H120.674L132.7 6.94611H133.004V29.521H142.772V0H127.534L115.507 22.5749H115.204V0H105.436V29.521ZM151.685 21.0554H167.964V14.5434H151.685V21.0554Z"/>
<path d="M173.057 29.521V23.5L194.677 23.5V17.756L180.394 17.756V11.6781H194.677V6.46856H173.057V0.173652H205.747V10.8292L199.8 14.5434L205.747 17.756V29.521L173.057 29.521Z"/>
<path d="M19.7705 49.5465H22.4187V55.7329H18.9456V52.4335H7.4628V55.7329H3.98975V49.5465H6.31235C6.77542 48.8374 7.12273 47.7087 7.35427 46.1603L8.04888 41.4934H19.7705V49.5465ZM10.8707 46.3774C10.6826 47.7521 10.357 48.8085 9.89394 49.5465H16.2323V44.3804H11.1529L10.8707 46.3774ZM27.7564 48.0054V49.959C30.0573 49.959 32.0037 49.9228 33.5955 49.8504C35.1873 49.7636 36.9673 49.6189 38.9353 49.4163L38.8051 52.4335C37.7342 52.5203 36.468 52.5927 35.0064 52.6506C33.5593 52.7229 32.2931 52.7591 31.2078 52.7591C29.2976 52.7591 27.8216 52.5927 26.7796 52.2598C25.7522 51.927 25.0214 51.3699 24.5873 50.5884C24.1532 49.7925 23.9361 48.671 23.9361 47.2239C23.9361 45.6176 24.1749 44.3876 24.6524 43.5338C25.1299 42.6655 25.9331 42.0578 27.0618 41.7105C28.205 41.3487 29.833 41.1678 31.9458 41.1678C34.0441 41.1678 35.6576 41.3414 36.7864 41.6887C37.9296 42.036 38.74 42.6221 39.2175 43.447C39.6951 44.2718 39.9338 45.444 39.9338 46.9634C39.9338 47.3107 39.9049 47.6581 39.847 48.0054H27.7564ZM31.9458 44.0548C30.5566 44.0548 29.1601 44.0982 27.7564 44.185V45.8347H36.2003V44.185C34.7821 44.0982 33.364 44.0548 31.9458 44.0548ZM55.6066 46.8983C56.9379 47.2746 57.6036 48.1356 57.6036 49.4814C57.6036 50.4944 57.2418 51.2396 56.5183 51.7172C55.8092 52.1947 54.6732 52.4335 53.1103 52.4335H42.6478V41.4934H52.7413C54.3042 41.4934 55.4402 41.7322 56.1493 42.2097C56.8728 42.6872 57.2346 43.4253 57.2346 44.4238C57.2346 45.6249 56.6919 46.4497 55.6066 46.8983ZM53.5879 45.813V44.0548H46.1859V45.813H53.5879ZM46.1859 49.8721H53.9569V47.9837H46.1859V49.8721ZM63.602 48.0054V49.959C65.9029 49.959 67.8492 49.9228 69.4411 49.8504C71.0329 49.7636 72.8128 49.6189 74.7809 49.4163L74.6506 52.4335C73.5798 52.5203 72.3136 52.5927 70.852 52.6506C69.4049 52.7229 68.1387 52.7591 67.0533 52.7591C65.1431 52.7591 63.6671 52.5927 62.6252 52.2598C61.5977 51.927 60.867 51.3699 60.4328 50.5884C59.9987 49.7925 59.7816 48.671 59.7816 47.2239C59.7816 45.6176 60.0204 44.3876 60.4979 43.5338C60.9755 42.6655 61.7786 42.0578 62.9074 41.7105C64.0506 41.3487 65.6786 41.1678 67.7914 41.1678C69.8897 41.1678 71.5032 41.3414 72.6319 41.6887C73.7751 42.036 74.5855 42.6221 75.0631 43.447C75.5406 44.2718 75.7794 45.444 75.7794 46.9634C75.7794 47.3107 75.7504 47.6581 75.6926 48.0054H63.602ZM67.7914 44.0548C66.4021 44.0548 65.0057 44.0982 63.602 44.185V45.8347H72.0458V44.185C70.6277 44.0982 69.2095 44.0548 67.7914 44.0548ZM78.7206 52.7591C78.3878 52.7591 77.9898 52.7446 77.5268 52.7157C77.0782 52.7012 76.7164 52.6723 76.4414 52.6289L76.3329 49.4163C77.8234 49.5755 79.0028 49.6551 79.8711 49.6551L80.7827 41.4934H92.8516V52.4335H89.2049V44.4889H84.0387L83.5395 48.9387C83.3948 50.2411 82.9245 51.2035 82.1286 51.8257C81.3471 52.448 80.2111 52.7591 78.7206 52.7591ZM104.152 52.7591C101.996 52.7591 100.324 52.5855 99.1375 52.2381C97.9653 51.8908 97.126 51.3048 96.6195 50.4799C96.1275 49.6551 95.8815 48.4829 95.8815 46.9634C95.8815 45.444 96.1275 44.2718 96.6195 43.447C97.126 42.6221 97.9653 42.036 99.1375 41.6887C100.324 41.3414 101.996 41.1678 104.152 41.1678C106.308 41.1678 107.972 41.3414 109.144 41.6887C110.331 42.036 111.17 42.6221 111.662 43.447C112.169 44.2718 112.422 45.444 112.422 46.9634C112.422 48.4829 112.169 49.6551 111.662 50.4799C111.17 51.3048 110.331 51.8908 109.144 52.2381C107.972 52.5855 106.308 52.7591 104.152 52.7591ZM104.152 49.7636C104.933 49.7636 105.758 49.7491 106.626 49.7202C107.495 49.6912 108.138 49.6551 108.558 49.6116V44.3152C108.138 44.2718 107.495 44.2357 106.626 44.2067C105.758 44.1778 104.933 44.1633 104.152 44.1633C103.37 44.1633 102.545 44.1778 101.677 44.2067C100.809 44.2357 100.165 44.2718 99.7453 44.3152V49.6116C100.165 49.6551 100.809 49.6912 101.677 49.7202C102.545 49.7491 103.37 49.7636 104.152 49.7636ZM119.109 52.4335H115.462V41.4934H130.093V52.4335H126.446V44.4889H119.109V52.4335ZM137.358 52.4335H133.778V41.4934H139.443L142.678 47.6581H142.785L146.02 41.4934H151.556V52.4335H147.974V43.8594H147.866L144.349 50.545H140.985L137.468 43.8594H137.358V52.4335ZM158.42 48.0054V49.959C160.721 49.959 162.667 49.9228 164.259 49.8504C165.851 49.7636 167.631 49.6189 169.599 49.4163L169.468 52.4335C168.398 52.5203 167.131 52.5927 165.67 52.6506C164.223 52.7229 162.956 52.7591 161.871 52.7591C159.961 52.7591 158.485 52.5927 157.443 52.2598C156.415 51.927 155.685 51.3699 155.251 50.5884C154.816 49.7925 154.599 48.671 154.599 47.2239C154.599 45.6176 154.838 44.3876 155.316 43.5338C155.793 42.6655 156.596 42.0578 157.725 41.7105C158.868 41.3487 160.496 41.1678 162.609 41.1678C164.707 41.1678 166.321 41.3414 167.45 41.6887C168.593 42.036 169.403 42.6221 169.881 43.447C170.358 44.2718 170.597 45.444 170.597 46.9634C170.597 47.3107 170.568 47.6581 170.51 48.0054H158.42ZM162.609 44.0548C161.22 44.0548 159.823 44.0982 158.42 44.185V45.8347H166.864V44.185C165.445 44.0982 164.027 44.0548 162.609 44.0548ZM184.621 45.3137V41.4934H188.268V52.4335H184.621V48.3093H176.958V52.4335H173.312V41.4934H176.958V45.3137H184.621ZM199.171 52.4335H195.525V44.4889H190.011V41.4934H204.685V44.4889H199.171V52.4335Z"/>
</svg>
