<?xml version="1.0" encoding="UTF-8" standalone="no" ?>
<!DOCTYPE svg PUBLIC "-//W3C//DTD SVG 1.1//EN" "http://www.w3.org/Graphics/SVG/1.1/DTD/svg11.dtd">
<svg xmlns="http://www.w3.org/2000/svg" xmlns:xlink="http://www.w3.org/1999/xlink" version="1.1" width="400" height="400" viewBox="0 0 400 400" xml:space="preserve">
<desc>Created with Fabric.js 3.6.2</desc>
<defs>
</defs>
<g transform="matrix(1.56 0 0 1.56 206.25 200)" id="Layer_1"  >
<path style=" stroke-dasharray: none; stroke-linecap: butt; stroke-dashoffset: 0; stroke-linejoin: miter; stroke-miterlimit: 4; opacity: 1;"  transform=" translate(-68, -64)" d="M 20 48 h 8 v -8 h -8 V 48 z M 52 40 h 8 v -8 h -8 V 40 z M 68 40 h 8 v -8 h -8 V 40 z M 84 40 h 8 v -8 h -8 V 40 z M 52 24 h 8 v -8 h -8 V 24 z M 68 24 h 8 v -8 h -8 V 24 z M 84 24 h 8 v -8 h -8 V 24 z M 52 72 h 8 v -8 h -8 V 72 z M 68 72 h 8 v -8 h -8 V 72 z M 84 72 h 8 v -8 h -8 V 72 z M 52 88 h 8 v -8 h -8 V 88 z M 84 88 h 8 v -8 h -8 V 88 z M 52 104 h 8 v -8 h -8 V 104 z M 84 104 h 8 v -8 h -8 V 104 z M 108 96 h 8 v -8 h -8 V 96 z M 108 72 v 8 h 8 v -8 H 108 z M 108 112 h 8 v -8 h -8 V 112 z M 52 56 h 8 v -8 h -8 V 56 z M 68 56 h 8 v -8 h -8 V 56 z M 84 56 h 8 v -8 h -8 V 56 z M 20 64 h 8 v -8 h -8 V 64 z M 20 80 h 8 v -8 h -8 V 80 z M 20 96 h 8 v -8 h -8 V 96 z M 20 112 h 8 v -8 h -8 V 112 z M 68 88 h 8 v -8 h -8 V 88 z" stroke-linecap="round" />
</g>
<g transform="matrix(1.56 0 0 1.56 200 200)" id="Layer_1"  >
<path style="stroke-dasharray: none; stroke-linecap: butt; stroke-dashoffset: 0; stroke-linejoin: miter; stroke-miterlimit: 4; opacity: 1;"  transform=" translate(-64, -64)" d="M 124 120 c 0 4.422 -3.578 8 -8 8 H 12 c -4.422 0 -8 -3.578 -8 -8 V 32 c 0 -4.422 3.578 -8 8 -8 h 24 V 8 c 0 -4.422 3.578 -8 8 -8 h 56 c 4.422 0 8 3.578 8 8 v 48 h 8 c 4.422 0 8 3.578 8 8 V 120 z M 36 32 H 12 v 88 h 24 V 32 z M 100 8 H 44 v 112 h 24 V 96 h 8 v 24 h 24 V 8 z M 116 64 h -8 v 56 h 8 V 64 z" stroke-linecap="round" />
</g>
</svg>
