<svg xmlns="http://www.w3.org/2000/svg" version="1.1" xmlns:xlink="http://www.w3.org/1999/xlink" xmlns:svgjs="http://svgjs.com/svgjs" width="512" height="512" x="0" y="0" viewBox="0 0 64 64" style="enable-background:new 0 0 512 512" xml:space="preserve" class=""><g><path d="m60.958 33.398-8.489 8.818A2.029 2.029 0 0 1 49 40.817v-3.8L37 37v11.982l3.817.017a2.029 2.029 0 0 1 1.4 3.47l-8.819 8.488a2.01 2.01 0 0 1-2.796 0l-8.818-8.489A2.029 2.029 0 0 1 23.183 49h3.8l.015-12H15.017L15 40.817a2.029 2.029 0 0 1-3.47 1.4l-8.488-8.819a2.01 2.01 0 0 1 0-2.796l8.489-8.818A2.029 2.029 0 0 1 15 23.183v3.8l12 .015V15.017L23.183 15a2.029 2.029 0 0 1-1.4-3.47l8.819-8.488a2.008 2.008 0 0 1 2.796 0l8.818 8.489A2.029 2.029 0 0 1 40.817 15h-3.8L37 27h11.982L49 23.183a2.03 2.03 0 0 1 3.47-1.4l8.488 8.819a2.01 2.01 0 0 1 0 2.796z" data-name="11 Move"  class=""></path></g></svg>