<?xml version="1.0" encoding="UTF-8" standalone="no" ?>
<!DOCTYPE svg PUBLIC "-//W3C//DTD SVG 1.1//EN" "http://www.w3.org/Graphics/SVG/1.1/DTD/svg11.dtd">
<svg xmlns="http://www.w3.org/2000/svg" xmlns:xlink="http://www.w3.org/1999/xlink" version="1.1" width="400" height="400" viewBox="0 0 400 400" xml:space="preserve">
<desc>Created with Fabric.js 3.6.2</desc>
<defs>
</defs>
<g transform="matrix(4.55 0 0 4.55 200 200)" id="Layer_1"  >
<path style="stroke: none; stroke-width: 1; stroke-dasharray: none; stroke-linecap: butt; stroke-dashoffset: 0; stroke-linejoin: miter; stroke-miterlimit: 4; fill-rule: evenodd; opacity: 1;"  transform=" translate(-24, -24)" d="M 41 47 L 41 47 H 7 l 0 0 c -2.762 0 -5 -2.238 -5 -5 V 2 c 0 -0.552 0.447 -1 1 -1 l 0 0 h 34 l 0 0 c 0.414 0 0.77 0.252 0.922 0.611 C 37.972 1.73 38 1.862 38 2 v 0 v 14 h 7 c 0.553 0 1 0.448 1 1 v 25 C 46 44.762 43.762 47 41 47 z M 36 42 V 3 H 4 v 39 l 0 0 l 0 0 c 0 1.657 1.344 3 3 3 h 30.022 C 36.39 44.162 36 43.131 36 42 z M 44 18 h -6 v 24 c 0 1.657 1.343 3 3 3 s 3 -1.343 3 -3 V 18 z M 7 40 c 0 -0.552 0.447 -1 1 -1 h 9 c 0.553 0 1 0.448 1 1 c 0 0.553 -0.447 1 -1 1 H 8 C 7.447 41 7 40.553 7 40 z M 11.666 23.715 c -0.381 0.381 -0.999 0.381 -1.381 0 c -0.381 -0.381 -0.381 -1 0 -1.381 l 5.905 -5.905 c 0.032 -0.047 0.053 -0.101 0.095 -0.143 c 0.197 -0.197 0.457 -0.288 0.715 -0.282 c 0.258 -0.006 0.518 0.084 0.715 0.282 c 0.042 0.042 0.062 0.096 0.095 0.143 l 4.19 4.19 l 2.19 -2.19 c 0.032 -0.047 0.053 -0.101 0.095 -0.143 c 0.197 -0.197 0.457 -0.288 0.715 -0.281 c 0.258 -0.007 0.518 0.084 0.715 0.281 c 0.042 0.042 0.062 0.096 0.095 0.143 l 3.905 3.905 c 0.381 0.381 0.381 1 0 1.381 c -0.382 0.381 -1 0.381 -1.381 0 L 25 20.381 L 23.381 22 l 0.334 0.334 c 0.381 0.381 0.381 1 0 1.381 s -1 0.381 -1.381 0 L 17 18.381 L 11.666 23.715 z M 23 29 h 9 c 0.553 0 1 0.448 1 1 c 0 0.553 -0.447 1 -1 1 h -9 c -0.553 0 -1 -0.447 -1 -1 C 22 29.448 22.447 29 23 29 z M 23 34 h 9 c 0.553 0 1 0.448 1 1 c 0 0.553 -0.447 1 -1 1 h -9 c -0.553 0 -1 -0.447 -1 -1 C 22 34.448 22.447 34 23 34 z M 23 39 h 9 c 0.553 0 1 0.448 1 1 c 0 0.553 -0.447 1 -1 1 h -9 c -0.553 0 -1 -0.447 -1 -1 C 22 39.448 22.447 39 23 39 z M 24 15.5 c 0 0.829 -0.672 1.5 -1.5 1.5 S 21 16.329 21 15.5 s 0.672 -1.5 1.5 -1.5 S 24 14.671 24 15.5 z M 27 10 H 13 c -0.553 0 -1 -0.448 -1 -1 s 0.447 -1 1 -1 h 14 c 0.553 0 1 0.448 1 1 S 27.553 10 27 10 z M 8 34 h 9 c 0.553 0 1 0.448 1 1 c 0 0.553 -0.447 1 -1 1 H 8 c -0.553 0 -1 -0.447 -1 -1 C 7 34.448 7.447 34 8 34 z M 18 30 c 0 0.553 -0.447 1 -1 1 H 8 c -0.553 0 -1 -0.447 -1 -1 c 0 -0.552 0.447 -1 1 -1 h 9 C 17.553 29 18 29.448 18 30 z" stroke-linecap="round" />
</g>
</svg>
