<?xml version="1.0" encoding="UTF-8" standalone="no" ?>
<!DOCTYPE svg PUBLIC "-//W3C//DTD SVG 1.1//EN" "http://www.w3.org/Graphics/SVG/1.1/DTD/svg11.dtd">
<svg xmlns="http://www.w3.org/2000/svg" xmlns:xlink="http://www.w3.org/1999/xlink" version="1.1" width="500" height="500" viewBox="0 0 400 400" xml:space="preserve">
<desc>Created with Fabric.js 3.6.2</desc>
<defs>
</defs>
<g transform="matrix(0.78 0 0 0.78 240.63 212.5)"  >
<path style="stroke-width: 12; stroke-dasharray: none; stroke-linecap: round; stroke-dashoffset: 0; stroke-linejoin: round; stroke-miterlimit: 4; fill: none; fill-rule: nonzero; opacity: 1;"  transform=" translate(-180, -144)" d="M 128 88 a 32 32 0 0 1 32 -32 h 64 a 8 8 0 0 1 8 8 V 192 a 8 8 0 0 1 -8 8 H 160 a 32 32 0 0 0 -32 32" stroke-linecap="round" />
</g>
<g transform="matrix(0.78 0 0 0.78 159.38 212.5)"  >
<path style="stroke-width: 12; stroke-dasharray: none; stroke-linecap: round; stroke-dashoffset: 0; stroke-linejoin: round; stroke-miterlimit: 4; fill: none; fill-rule: nonzero; opacity: 1;"  transform=" translate(-76, -144)" d="M 24 192 a 8 8 0 0 0 8 8 H 96 a 32 32 0 0 1 32 32 V 88 A 32 32 0 0 0 96 56 H 32 a 8 8 0 0 0 -8 8 Z" stroke-linecap="round" />
</g>
</svg>
