<svg xmlns="http://www.w3.org/2000/svg" version="1.1" xmlns:xlink="http://www.w3.org/1999/xlink" xmlns:svgjs="http://svgjs.com/svgjs" width="512" height="512" x="0" y="0" viewBox="0 0 64 64" style="enable-background:new 0 0 512 512" xml:space="preserve" class=""><g><path d="M55 1H9a1 1 0 0 0-1 1v56a1 1 0 0 0 1 1h2.22l.81 3.243A1 1 0 0 0 13 63h4a1 1 0 0 0 .97-.757L18.78 59h26.44l.81 3.243A1 1 0 0 0 47 63h4a1 1 0 0 0 .97-.757L52.78 59H55a1 1 0 0 0 1-1V2a1 1 0 0 0-1-1zm-1 42H33V3h21zM31 3v40H10V3zM16.219 61h-2.438l-.5-2h3.438zm34 0h-2.438l-.5-2h3.438zM10 57V45h44v12z"  class=""></path><path d="M28 50h8v2h-8zM35 20h2v6h-2zM27 20h2v6h-2zM50 10h2V6a1 1 0 0 0-1-1h-4v2h3zM14 7h3V5h-4a1 1 0 0 0-1 1v4h2zM52 40v-4h-2v3h-3v2h4a1 1 0 0 0 1-1zM13 41h4v-2h-3v-3h-2v4a1 1 0 0 0 1 1zM43 5h2v2h-2z"  class=""></path></g></svg>
