<?xml version="1.0" encoding="UTF-8" standalone="no" ?>
<!DOCTYPE svg PUBLIC "-//W3C//DTD SVG 1.1//EN" "http://www.w3.org/Graphics/SVG/1.1/DTD/svg11.dtd">
<svg xmlns="http://www.w3.org/2000/svg" xmlns:xlink="http://www.w3.org/1999/xlink" version="1.1" width="400" height="400" viewBox="0 0 400 400" xml:space="preserve">
<desc>Created with Fabric.js 3.6.2</desc>
<defs>
</defs>
<g transform="matrix(5.56 0 0 5.56 200 200)" id="Layer_1"  >
<path style="stroke: none; stroke-width: 1; stroke-dasharray: none; stroke-linecap: butt; stroke-dashoffset: 0; stroke-linejoin: miter; stroke-miterlimit: 4; fill-rule: evenodd; opacity: 1;"  transform=" translate(-24, -24)" d="M 6 47 V 20 c 0 -2.209 1.791 -4 4 -4 l 0 0 v -4 c 0 -1.104 0.896 -2 2 -2 h 2 V 2 c 0 -0.552 0.447 -1 1 -1 s 1 0.448 1 1 v 8 h 2 c 1.104 0 2 0.896 2 2 v 4 l 0 0 l 0 0 c 2.209 0 4 1.791 4 4 v 8 h 7 v -6 h 4 v -3 h 6 v 3 h 1 v 25 H 6 z M 18 13 c 0 -0.552 -0.447 -1 -1 -1 h -4 c -0.553 0 -1 0.448 -1 1 v 3 h 6 V 13 z M 22 20 c 0 -1.104 -0.896 -2 -2 -2 H 10 c -1.104 0 -2 0.896 -2 2 v 25 h 14 V 20 z M 31 30 h -7 v 15 h 7 V 30 z M 40 24 h -7 v 21 h 7 V 24 z M 36 27 h 1 c 0.553 0 1 0.447 1 1 v 1 c 0 0.553 -0.447 1 -1 1 h -1 c -0.553 0 -1 -0.447 -1 -1 v -1 C 35 27.447 35.447 27 36 27 z M 36 33 h 1 c 0.553 0 1 0.447 1 1 v 1 c 0 0.553 -0.447 1 -1 1 h -1 c -0.553 0 -1 -0.447 -1 -1 v -1 C 35 33.447 35.447 33 36 33 z M 36 39 h 1 c 0.553 0 1 0.447 1 1 v 1 c 0 0.553 -0.447 1 -1 1 h -1 c -0.553 0 -1 -0.447 -1 -1 v -1 C 35 39.447 35.447 39 36 39 z M 27 33 h 1 c 0.553 0 1 0.447 1 1 v 1 c 0 0.553 -0.447 1 -1 1 h -1 c -0.553 0 -1 -0.447 -1 -1 v -1 C 26 33.447 26.447 33 27 33 z M 27 39 h 1 c 0.553 0 1 0.447 1 1 v 1 c 0 0.553 -0.447 1 -1 1 h -1 c -0.553 0 -1 -0.447 -1 -1 v -1 C 26 39.447 26.447 39 27 39 z M 18 42 h -1 c -0.553 0 -1 -0.447 -1 -1 v -1 c 0 -0.552 0.447 -1 1 -1 h 1 c 0.553 0 1 0.448 1 1 v 1 C 19 41.553 18.553 42 18 42 z M 18 36 h -1 c -0.553 0 -1 -0.447 -1 -1 v -1 c 0 -0.552 0.447 -1 1 -1 h 1 c 0.553 0 1 0.448 1 1 v 1 C 19 35.553 18.553 36 18 36 z M 18 30 h -1 c -0.553 0 -1 -0.447 -1 -1 v -1 c 0 -0.552 0.447 -1 1 -1 h 1 c 0.553 0 1 0.448 1 1 v 1 C 19 29.553 18.553 30 18 30 z M 18 24 h -1 c -0.553 0 -1 -0.447 -1 -1 v -1 c 0 -0.552 0.447 -1 1 -1 h 1 c 0.553 0 1 0.448 1 1 v 1 C 19 23.553 18.553 24 18 24 z M 13 42 h -1 c -0.553 0 -1 -0.447 -1 -1 v -1 c 0 -0.553 0.447 -1 1 -1 h 1 c 0.553 0 1 0.447 1 1 v 1 C 14 41.553 13.553 42 13 42 z M 13 36 h -1 c -0.553 0 -1 -0.447 -1 -1 v -1 c 0 -0.553 0.447 -1 1 -1 h 1 c 0.553 0 1 0.447 1 1 v 1 C 14 35.553 13.553 36 13 36 z M 13 30 h -1 c -0.553 0 -1 -0.447 -1 -1 v -1 c 0 -0.552 0.447 -1 1 -1 h 1 c 0.553 0 1 0.448 1 1 v 1 C 14 29.553 13.553 30 13 30 z M 13 24 h -1 c -0.553 0 -1 -0.447 -1 -1 v -1 c 0 -0.552 0.447 -1 1 -1 h 1 c 0.553 0 1 0.448 1 1 v 1 C 14 23.553 13.553 24 13 24 z" stroke-linecap="round" />
</g>
</svg>
