<?xml version="1.0" encoding="UTF-8" standalone="no" ?>
<!DOCTYPE svg PUBLIC "-//W3C//DTD SVG 1.1//EN" "http://www.w3.org/Graphics/SVG/1.1/DTD/svg11.dtd">
<svg xmlns="http://www.w3.org/2000/svg" xmlns:xlink="http://www.w3.org/1999/xlink" version="1.1" width="400" height="400" viewBox="0 0 400 400" xml:space="preserve">
<desc>Created with Fabric.js 3.6.2</desc>
<defs>
</defs>
<g transform="matrix(9.43 0 0 9.43 200 200)" id="Icons"  >
<path style="stroke: none; stroke-width: 1; stroke-dasharray: none; stroke-linecap: butt; stroke-dashoffset: 0; stroke-linejoin: miter; stroke-miterlimit: 4; fill-rule: nonzero; opacity: 1;"  transform=" translate(-12, -12)" d="M 5.4 24 H 18.6 a 4 4 0 0 0 3.968 -4.5 l -1.25 -10 A 4.005 4.005 0 0 0 17.352 6 H 17 V 5 A 5 5 0 0 0 7 5 V 6 H 6.648 A 4.005 4.005 0 0 0 2.68 9.5 l -1.25 10 A 4 4 0 0 0 5.4 24 Z M 9 5 a 3 3 0 0 1 6 0 V 6 H 9 Z M 3.414 19.752 l 1.25 -10 A 2 2 0 0 1 6.648 8 H 7 v 2 a 1 1 0 0 0 2 0 V 8 h 6 v 2 a 1 1 0 0 0 2 0 V 8 h 0.352 a 2 2 0 0 1 1.984 1.752 l 1.25 10 A 2 2 0 0 1 18.6 22 H 5.4 a 2 2 0 0 1 -1.984 -2.248 Z" stroke-linecap="round" />
</g>
</svg>
