<?xml version="1.0" encoding="UTF-8" standalone="no" ?>
<!DOCTYPE svg PUBLIC "-//W3C//DTD SVG 1.1//EN" "http://www.w3.org/Graphics/SVG/1.1/DTD/svg11.dtd">
<svg xmlns="http://www.w3.org/2000/svg" xmlns:xlink="http://www.w3.org/1999/xlink" version="1.1" width="400" height="400" viewBox="0 0 400 400" xml:space="preserve">
<desc>Created with Fabric.js 3.6.2</desc>
<defs>
</defs>
<g transform="matrix(1.56 0 0 1.56 200 200)" id="Layer_1"  >
<path style="stroke-width: 1; stroke-dasharray: none; stroke-linecap: butt; stroke-dashoffset: 0; stroke-linejoin: miter; stroke-miterlimit: 4; opacity: 1;"  transform=" translate(-64, -64)" d="M 64 20.5 c 24 0 43.5 17.76 43.5 39.59 S 88 99.69 64 99.69 a 47.6 47.6 0 0 1 -11.71 -1.46 l -2.38 -0.6 l -2.18 1.12 l -9 4.63 V 92.44 l -2.56 -2 C 26.2 82.93 20.5 71.85 20.5 60.09 C 20.5 38.26 40 20.5 64 20.5 M 64 14 C 36.39 14 14 34.64 14 60.09 c 0 14.32 7.08 27.11 18.19 35.57 V 114 l 18.5 -9.48 A 54 54 0 0 0 64 106.19 c 27.61 0 50 -20.64 50 -46.09 S 91.61 14 64 14 Z" stroke-linecap="round" />
</g>
<g transform="matrix(1.56 0 0 1.56 200 195.12)" id="Layer_1"  >
<polygon style="stroke-width: 1; stroke-dasharray: none; stroke-linecap: butt; stroke-dashoffset: 0; stroke-linejoin: miter; stroke-miterlimit: 4; opacity: 1;"  points="-30.81,13.19 -5.23,-14.26 7.76,-1.17 30.81,-13.77 5.13,14.25 -7.47,0.48 -30.81,13.19 " />
</g>
</svg>
