<svg width="81" height="12" viewBox="0 0 81 12" fill="none" xmlns="http://www.w3.org/2000/svg">
<path d="M33.6233 6C33.6233 6.89988 33.8057 7.72441 34.1705 8.47358L36.1236 6.57902C36.0978 6.39252 36.085 6.19951 36.085 6C36.085 5.34162 36.2251 4.75415 36.5053 4.23757C36.7955 3.72099 37.1907 3.3209 37.6911 3.03729C38.1914 2.74355 38.7518 2.59668 39.3723 2.59668C39.389 2.59668 39.4057 2.59679 39.4223 2.59701C39.5322 2.46846 39.6584 2.33227 39.8134 2.17541C40.3812 1.60068 41.1782 1.2512 41.9667 1.03934C41.185 0.679781 40.3202 0.5 39.3723 0.5C38.2815 0.5 37.2958 0.73803 36.4152 1.21409C35.5446 1.69015 34.8591 2.34852 34.3588 3.18923C33.8685 4.0198 33.6233 4.95672 33.6233 6Z" fill="#2D2D2D"/>
<path d="M44.3829 3.20703C44.181 4.07422 43.8261 4.97831 43.2051 5.60686C42.9968 5.81774 42.8253 5.97602 42.6595 6.11231C42.6438 6.7253 42.4992 7.27532 42.2256 7.7623C41.9454 8.27885 41.5552 8.68397 41.0548 8.97774C40.5545 9.26134 39.9941 9.40318 39.3737 9.40318C39.1149 9.40318 38.8667 9.37852 38.6288 9.32915L36.9291 10.9636C36.9128 10.9792 36.8964 10.9947 36.88 11.0101C37.6391 11.3366 38.4704 11.4998 39.3737 11.4998C40.4644 11.4998 41.4451 11.2618 42.3157 10.7857C43.1863 10.3097 43.8717 9.65637 44.3721 8.82581C44.8724 7.98508 45.1227 7.04309 45.1227 5.99984C45.1227 4.96408 44.876 4.03314 44.3829 3.20703Z" fill="#2D2D2D"/>
<path fill-rule="evenodd" clip-rule="evenodd" d="M30.1908 7.89948L32.0209 10.5542L31.2336 11.318H29.9356L27.9092 8.35527H25.6726V11.318H23.241V0.682617H27.7891C28.7197 0.682617 29.5253 0.839616 30.2058 1.15361C30.8963 1.46761 31.4267 1.91328 31.7969 2.49063C32.1671 3.06798 32.3523 3.75168 32.3523 4.54174C32.3523 5.33179 32.1621 6.01549 31.7819 6.59284C31.4116 7.16009 30.8812 7.59562 30.1908 7.89948ZM29.8906 4.54174C29.8906 3.94413 29.7004 3.48832 29.3201 3.17433C28.9399 2.85021 28.3845 2.68815 27.654 2.68815H25.6726V6.39533H27.654C28.3845 6.39533 28.9399 6.23326 29.3201 5.90914C29.7004 5.58502 29.8906 5.12921 29.8906 4.54174Z" fill="#2D2D2D"/>
<path fill-rule="evenodd" clip-rule="evenodd" d="M3.72755 9.03895H8.60594L9.53658 11.318H12.0884L7.39012 0.682617H4.98843L0.305176 11.318H2.79691L3.72755 9.03895ZM6.17425 3.09836L7.84042 7.17018H4.5081L6.17425 3.09836Z" fill="#2D2D2D"/>
<path d="M21.3167 11.318V9.34281H15.5977V6.88151H20.4761V4.96715H15.5977V2.65775H21.1216V0.682617H13.181V11.318H21.3167Z" fill="#2D2D2D"/>
<path d="M50.7782 7.13983L49.3672 8.62878V11.318H46.9506V0.682617H49.3672V5.65085L54.0205 0.682617H56.7224L52.3694 5.42295L56.9775 11.318H54.1406L50.7782 7.13983Z" fill="#2D2D2D"/>
<path fill-rule="evenodd" clip-rule="evenodd" d="M59.8132 10.7859C60.6938 11.2619 61.6795 11.5 62.7702 11.5C63.861 11.5 64.8414 11.2619 65.7121 10.7859C66.5828 10.3099 67.2681 9.65653 67.7686 8.82596C68.2691 7.98524 68.5191 7.04325 68.5191 6C68.5191 4.95672 68.2691 4.0198 67.7686 3.18923C67.2681 2.34852 66.5828 1.69015 65.7121 1.21409C64.8414 0.73803 63.861 0.5 62.7702 0.5C61.6795 0.5 60.6938 0.73803 59.8132 1.21409C58.9426 1.69015 58.2571 2.34852 57.7568 3.18923C57.2664 4.0198 57.0212 4.95672 57.0212 6C57.0212 7.04325 57.2664 7.98524 57.7568 8.82596C58.2571 9.65653 58.9426 10.3099 59.8132 10.7859ZM64.4514 8.97789C63.951 9.2615 63.3906 9.40334 62.7702 9.40334C62.1498 9.40334 61.5894 9.2615 61.0891 8.97789C60.5887 8.68413 60.1934 8.27901 59.9033 7.76246C59.6231 7.24585 59.4829 6.65838 59.4829 6C59.4829 5.34162 59.6231 4.75415 59.9033 4.23757C60.1934 3.72099 60.5887 3.3209 61.0891 3.03729C61.5894 2.74355 62.1498 2.59668 62.7702 2.59668C63.3906 2.59668 63.951 2.74355 64.4514 3.03729C64.952 3.3209 65.3419 3.72099 65.6219 4.23757C65.9122 4.75415 66.0573 5.34162 66.0573 6C66.0573 6.65838 65.9122 7.24585 65.6219 7.76246C65.3419 8.27901 64.952 8.68413 64.4514 8.97789Z" fill="#2D2D2D"/>
<path fill-rule="evenodd" clip-rule="evenodd" d="M70.3484 0.682617H75.1218C76.2623 0.682617 77.2685 0.905453 78.1385 1.35113C79.0194 1.78667 79.6996 2.40453 80.1803 3.20472C80.6706 4.0049 80.9155 4.93676 80.9155 6.0003C80.9155 7.0638 80.6706 7.9957 80.1803 8.79585C79.6996 9.59607 79.0194 10.219 78.1385 10.6647C77.2685 11.1002 76.2623 11.318 75.1218 11.318H70.3484V0.682617ZM75.0016 9.29726C76.0526 9.29726 76.8881 9.00349 77.5082 8.41603C78.1385 7.81847 78.4543 7.0132 78.4543 6.0003C78.4543 4.9874 78.1385 4.18722 77.5082 3.59975C76.8881 3.00214 76.0526 2.70334 75.0016 2.70334H72.7802V9.29726H75.0016Z" fill="#2D2D2D"/>
<path d="M40.8462 6.86357L41.3008 7.32394C41.3008 7.32394 42.1584 6.65498 42.2193 5.95703C41.9328 6.13858 41.5452 6.38759 40.9431 6.81119C40.9126 6.8326 40.8801 6.85008 40.8462 6.86357Z" fill="#2D2D2D"/>
<path d="M43.721 1.65752C43.6855 1.62169 43.6375 1.60156 43.5875 1.60156L43.5838 1.6016C42.9762 1.61366 41.4772 1.72869 40.681 2.53452C40.3197 2.90031 40.2022 3.09072 39.9448 3.508C39.7594 3.80844 39.5056 4.21995 39.0417 4.89578C38.9895 4.97174 38.9986 5.07455 39.0633 5.13991L40.2803 6.37184C40.3169 6.40881 40.3652 6.42783 40.4139 6.42783C40.4513 6.42783 40.4889 6.41661 40.5215 6.39367C41.1895 5.92403 41.5958 5.66716 41.8925 5.47957C42.3048 5.21902 42.4929 5.10009 42.8544 4.73427C43.6519 3.92701 43.7647 2.4107 43.7762 1.79623C43.7772 1.74435 43.7573 1.69427 43.721 1.65752ZM42.3116 3.98194C42.0666 4.22994 41.6694 4.22994 41.4244 3.98194C41.1793 3.73393 41.1794 3.33189 41.4244 3.0839C41.6694 2.83588 42.0666 2.83585 42.3116 3.08385C42.5566 3.33184 42.5567 3.73396 42.3116 3.98194Z" fill="#2D2D2D"/>
<path d="M38.4822 5.82227C38.5042 5.86018 38.5298 5.89303 38.5554 5.91897L39.4216 6.79573C39.461 6.83562 39.5166 6.8755 39.5816 6.90201L35.843 10.497C35.3582 10.9632 34.7151 11.223 34.0466 11.223H32.9144L38.4822 5.82227Z" fill="#FE4F24"/>
</svg>
