<svg width="17" height="28" viewBox="0 0 17 28" xmlns="http://www.w3.org/2000/svg">
<path d="M8.0962 0C5.94892 0 3.88966 0.846834 2.37131 2.35428C0.85296 3.86172 0 5.9062 0 8.03805C0 12.4782 8.0962 27.4579 8.0962 27.4579C8.0962 27.4579 16.1923 12.4793 16.1923 8.03805C16.1923 5.9062 15.3393 3.86172 13.821 2.35428C12.3027 0.846834 10.2434 0 8.0962 0ZM8.0962 11.8791C7.07009 11.8791 6.08602 11.4744 5.36048 10.7541C4.63486 10.0337 4.22727 9.05671 4.22727 8.03805C4.22727 7.01931 4.63486 6.0423 5.36048 5.32198C6.08602 4.60157 7.07009 4.19691 8.0962 4.19691C9.12222 4.19691 10.1063 4.60157 10.8319 5.32198C11.5574 6.0423 11.965 7.01931 11.965 8.03805C11.965 9.05671 11.5574 10.0337 10.8319 10.7541C10.1063 11.4744 9.12222 11.8791 8.0962 11.8791Z"/>
</svg>
