<svg xmlns="http://www.w3.org/2000/svg" version="1.1" width="512" height="512" x="0" y="0" viewBox="0 0 48 48" style="enable-background:new 0 0 512 512" xml:space="preserve" ><g><path d="M45 40h-5V22h5a.999.999 0 0 0 .65-1.76L39 14.54V4a1 1 0 0 0-1-1h-4a1 1 0 0 0-1 1v5.397l-8.35-7.156a1 1 0 0 0-1.3 0l-21 18A1 1 0 0 0 3 22h5v18H3a1 1 0 0 0-1 1v4a1 1 0 0 0 1 1h42a1 1 0 0 0 1-1v-4a1 1 0 0 0-1-1zM35 5h2v7.826l-2-1.714zM5.703 20 24 4.317 42.297 20H39a1 1 0 0 0-1 1v19h-9V28a1 1 0 0 0-1-1h-8a1 1 0 0 0-1 1v12h-9V21a1 1 0 0 0-1-1zM27 29v11h-6V29zm17 15H4v-2h40z"></path></g></svg>