<svg xmlns="http://www.w3.org/2000/svg" version="1.1" width="512" height="512" x="0" y="0" viewBox="0 0 64 64" style="enable-background:new 0 0 512 512" xml:space="preserve" class=""><g><g><path d="M58.62 11.78A1 1 0 0 0 59 11V5a1 1 0 0 0-1-1h-4V3a1 1 0 0 0-1-1H11a1 1 0 0 0-1 1v9H8.5a3.5 3.5 0 0 0 0 7H10v4H8.5a3.5 3.5 0 0 0 0 7H10v4H8.5a3.5 3.5 0 0 0 0 7H10v4H8.5a3.5 3.5 0 0 0 0 7H10v9a1 1 0 0 0 1 1h42a1 1 0 0 0 1-1V41.48l4.62-3.7A1 1 0 0 0 59 37v-6a1 1 0 0 0-1-1h-4v-1.52l4.62-3.7A1 1 0 0 0 59 24v-6a1 1 0 0 0-1-1h-4v-1.52ZM54 6h3v4.52l-3 2.4ZM10 50H8.5a1.5 1.5 0 0 1 0-3H10Zm0-11H8.5a1.5 1.5 0 0 1 0-3H10Zm0-11H8.5a1.5 1.5 0 0 1 0-3H10Zm0-11H8.5a1.5 1.5 0 0 1 0-3H10Zm42 43H12v-8h1.28a2 2 0 1 0 0-2H12v-9h1.28a2 2 0 1 0 0-2H12v-9h1.28a2 2 0 1 0 0-2H12v-9h1.28a2 2 0 1 0 0-2H12V4h40Zm5-28v4.52l-3 2.4V32Zm0-13v4.52l-3 2.4V19Z" class=""></path><path d="M33 37a12 12 0 1 0-12-12 12.013 12.013 0 0 0 12 12Zm0-2a9.949 9.949 0 0 1-6.536-2.449 6.986 6.986 0 0 1 11.485-2.508 7.147 7.147 0 0 1 1.595 2.5A9.949 9.949 0 0 1 33 35Zm-3-12a3 3 0 1 1 3 3 3 3 0 0 1-3-3Zm3-8a9.981 9.981 0 0 1 8.018 15.951 9.182 9.182 0 0 0-1.653-2.321 9.035 9.035 0 0 0-2.982-1.971 5 5 0 1 0-6.757.007 9.04 9.04 0 0 0-4.653 4.272A9.981 9.981 0 0 1 33 15Z"></path></g></g></svg>