<svg xmlns="http://www.w3.org/2000/svg" version="1.1" width="512" height="512" x="0" y="0" viewBox="0 0 66 66" style="enable-background:new 0 0 512 512" xml:space="preserve"><g><path d="M33 47.3c-3.7 0-6.8 3-6.8 6.8 0 3.7 3 6.8 6.8 6.8 3.7 0 6.8-3 6.8-6.8s-3.1-6.8-6.8-6.8zm0 11.5c-2.6 0-4.8-2.1-4.8-4.8 0-2.6 2.1-4.8 4.8-4.8s4.8 2.1 4.8 4.8-2.2 4.8-4.8 4.8zM28.1 9.1H38c.6 0 1-.4 1-1s-.4-1-1-1h-9.9c-.6 0-1 .4-1 1 0 .5.4 1 1 1zM28.1 14.5H38c.6 0 1-.4 1-1s-.4-1-1-1h-9.9c-.6 0-1 .4-1 1s.4 1 1 1zM28.1 19.9H38c.6 0 1-.4 1-1s-.4-1-1-1h-9.9c-.6 0-1 .4-1 1s.4 1 1 1z" ></path><path d="M62.4 13.3H44.9c-.2 0-.4 0-.6.1V3.6c0-1.4-1.2-2.6-2.6-2.6H24.2c-1.4 0-2.6 1.2-2.6 2.6v9.8c-.2 0-.4-.1-.6-.1H3.6c-1.4 0-2.6 1.2-2.6 2.6v46.5C1 63.8 2.2 65 3.6 65h17.5c.6 0 1.1-.2 1.6-.6.4.3 1 .6 1.6.6h17.5c.6 0 1.1-.2 1.6-.6.4.3 1 .6 1.6.6h17.5c1.4 0 2.6-1.2 2.6-2.6V15.9c-.1-1.4-1.3-2.6-2.7-2.6zM21.1 63H3.6c-.3 0-.6-.3-.6-.6V15.9c0-.3.3-.6.6-.6h17.5c.3 0 .6.3.6.6v46.5c0 .3-.3.6-.6.6zm20.7 0H24.2c-.3 0-.6-.3-.6-.6V3.6c0-.3.3-.6.6-.6h17.5c.3 0 .6.3.6.6v58.8c0 .3-.2.6-.5.6zm21.2-.6c0 .3-.3.6-.6.6H44.9c-.3 0-.6-.3-.6-.6V15.9c0-.3.3-.6.6-.6h17.5c.3 0 .6.3.6.6z" ></path><path d="M53.7 48.1c-3.3 0-5.9 2.7-5.9 5.9s2.7 5.9 5.9 5.9 5.9-2.7 5.9-5.9-2.7-5.9-5.9-5.9zm0 9.9c-2.2 0-3.9-1.8-3.9-3.9 0-2.2 1.8-3.9 3.9-3.9 2.2 0 3.9 1.8 3.9 3.9S55.8 58 53.7 58zM58.6 19.4h-9.9c-.6 0-1 .4-1 1s.4 1 1 1h9.9c.6 0 1-.4 1-1s-.4-1-1-1zM58.6 24.7h-9.9c-.6 0-1 .4-1 1s.4 1 1 1h9.9c.6 0 1-.4 1-1 0-.5-.4-1-1-1zM58.6 30.1h-9.9c-.6 0-1 .4-1 1s.4 1 1 1h9.9c.6 0 1-.4 1-1 0-.5-.4-1-1-1zM12.3 48.1c-3.3 0-5.9 2.7-5.9 5.9s2.7 6 5.9 6 5.9-2.7 5.9-5.9-2.6-6-5.9-6zm0 9.9c-2.2 0-3.9-1.8-3.9-3.9 0-2.2 1.8-3.9 3.9-3.9 2.2 0 3.9 1.8 3.9 3.9.1 2.1-1.7 3.9-3.9 3.9zM17.3 19.4H7.4c-.6 0-1 .4-1 1s.4 1 1 1h9.9c.6 0 1-.4 1-1s-.5-1-1-1zM17.3 24.7H7.4c-.6 0-1 .4-1 1s.4 1 1 1h9.9c.6 0 1-.4 1-1 0-.5-.5-1-1-1zM17.3 30.1H7.4c-.6 0-1 .4-1 1s.4 1 1 1h9.9c.6 0 1-.4 1-1 0-.5-.5-1-1-1z"></path></g></svg>