<svg xmlns="http://www.w3.org/2000/svg" version="1.1" width="512" height="512" x="0" y="0" viewBox="0 0 66 66" style="enable-background:new 0 0 512 512" xml:space="preserve" class=""><g><path d="M1.285 39.368a.97.97 0 0 0 1.371-.001l4.442-4.446V64.03c0 .536.434.97.97.97h49.865a.97.97 0 0 0 .97-.97V34.927l4.442 4.441a.969.969 0 1 0 1.371-1.371l-31.04-31.03a.969.969 0 0 0-1.371 0l-3.386 3.386C26.858 4.897 21.597 1 15.429 1 7.473 1 1 7.473 1 15.429c0 6.168 3.898 11.43 9.354 13.49l-9.07 9.078a.968.968 0 0 0 .001 1.371zM39.41 63.061H26.6V50.202c0-3.529 2.871-6.4 6.4-6.4 3.534 0 6.41 2.871 6.41 6.4zM2.939 15.429c0-6.887 5.603-12.49 12.49-12.49s12.49 5.603 12.49 12.49-5.603 12.49-12.49 12.49-12.49-5.603-12.49-12.49zM9.037 32.98l3.428-3.431c.957.201 1.948.309 2.964.309 7.956 0 14.429-6.473 14.429-14.429 0-1.016-.108-2.007-.309-2.965l3.441-3.441 23.973 23.965V63.06H41.349V50.202c0-4.598-3.745-8.339-8.349-8.339-4.598 0-8.339 3.741-8.339 8.339V63.06H9.037z"></path><path d="M16.394 23.667v-.923c1.856-.44 3.245-2.098 3.245-4.083a4.215 4.215 0 0 0-4.214-4.206c-1.25 0-2.267-1.017-2.267-2.267s1.017-2.267 2.267-2.267a2.274 2.274 0 0 1 2.275 2.267.97.97 0 1 0 1.94 0c0-1.985-1.389-3.644-3.245-4.083v-.924a.97.97 0 1 0-1.94 0v.924c-1.851.441-3.236 2.098-3.236 4.082a4.21 4.21 0 0 0 4.206 4.206c1.254 0 2.275 1.017 2.275 2.267s-1.021 2.267-2.275 2.267a2.27 2.27 0 0 1-2.267-2.267.97.97 0 1 0-1.94 0c0 1.984 1.385 3.642 3.236 4.082v.924a.97.97 0 0 0 1.94.001z"></path></g></svg>