<svg xmlns="http://www.w3.org/2000/svg" version="1.1" width="512" height="512" x="0" y="0" viewBox="0 0 1707 1707" style="enable-background:new 0 0 512 512" xml:space="preserve" class=""><g><path d="M443 1459c-11 0-20-9-20-20 0-87-71-158-159-158-87 0-158 71-158 158 0 11-9 20-20 20s-20-9-20-20V201c-1-53 19-104 57-142S211 0 264 0c54 0 104 21 142 59 37 38 58 89 57 142v1238c0 11-9 20-20 20zm-179-218c65 0 123 32 159 80V201c1-43-16-83-46-114-30-30-70-47-113-47-42 0-83 17-113 47-30 31-46 71-45 114v1120c36-48 94-80 158-80z" class=""></path><path d="M1622 1576H560c-75 0-137-62-137-138V201c0-11 9-20 20-20h1179c11 0 20 9 20 20v1355c0 11-9 20-20 20zM463 221v1217c0 54 44 98 97 98h1042V221z" class=""></path><path d="M542 1707c-158 0-430-29-472-225-14-64 0-127 38-174s94-71 158-67c108 8 181 75 197 182v3c0 20 1 31 3 35 0 1 0 2 1 3 11 42 50 72 93 72h1013c11 0 20 8 20 18l7 116c1 5-1 11-5 15s-9 6-15 6c-192 0-391 4-583 8-147 3-298 6-444 8zm-290-426c-46 0-86 18-113 52-30 37-41 89-30 141 36 168 287 193 433 193h11c145-2 296-5 443-8 185-4 377-8 563-8l-5-75H560c-61 0-115-41-132-100-4-12-5-30-5-49-13-87-71-140-160-146h-11zM1409 634H656c-11 0-20-9-20-20V398c0-11 9-20 20-20h753c11 0 20 9 20 20v216c0 11-9 20-20 20zm-733-40h713V418H676zM1409 758H656c-11 0-20-9-20-20s9-20 20-20h753c11 0 20 9 20 20s-9 20-20 20zM1005 882H656c-11 0-20-9-20-20s9-20 20-20h349c11 0 20 9 20 20s-9 20-20 20zM1005 1006H656c-11 0-20-9-20-20s9-20 20-20h349c11 0 20 9 20 20s-9 20-20 20zM1005 1131H656c-11 0-20-9-20-20s9-20 20-20h349c11 0 20 9 20 20s-9 20-20 20zM1409 1255H656c-11 0-20-9-20-20s9-20 20-20h753c11 0 20 9 20 20s-9 20-20 20z" class=""></path><path d="M1409 1379H656c-11 0-20-9-20-20s9-20 20-20h753c11 0 20 9 20 20s-9 20-20 20zM1409 1131h-280c-11 0-20-9-20-20V862c0-11 9-20 20-20h280c11 0 20 9 20 20v249c0 11-9 20-20 20zm-260-40h240V882h-240zM264 1118c-11 0-20-9-20-20V189c0-11 9-20 20-20s20 9 20 20v909c0 11-9 20-20 20z" class=""></path></g></svg>