<svg xmlns="http://www.w3.org/2000/svg" version="1.1" width="512" height="512" x="0" y="0" viewBox="0 0 48 48" style="enable-background:new 0 0 512 512" xml:space="preserve" class=""><g><path d="m45.65 20.24-21-18a1 1 0 0 0-1.3 0l-21 18A1 1 0 0 0 3 22h5v23a1 1 0 0 0 1 1h30a1 1 0 0 0 1-1V22h5a.999.999 0 0 0 .65-1.76zM39 20a1 1 0 0 0-1 1v23H10V21a1 1 0 0 0-1-1H5.703L24 4.317 42.297 20zm-26 9c0 6.065 4.935 11 11 11s11-4.935 11-11-4.935-11-11-11-11 4.935-11 11zm20 0c0 4.963-4.037 9-9 9-4.962 0-9-4.037-9-9 0-4.962 4.038-9 9-9 4.963 0 9 4.038 9 9zm-9-6a1 1 0 0 1 1 1v4.434l4.515 2.709a1 1 0 1 1-1.03 1.714l-5-3A1 1 0 0 1 23 29v-5a1 1 0 0 1 1-1z"></path></g></svg>