<svg xmlns="http://www.w3.org/2000/svg" version="1.1" width="512" height="512" x="0" y="0" viewBox="0 0 512 512" style="enable-background:new 0 0 512 512" xml:space="preserve" class=""><g><path d="M295.164 443.349H88.042c-3.316 0-6.006 2.69-6.006 6.006s2.69 6.006 6.006 6.006h207.122c3.316 0 6.006-2.69 6.006-6.006s-2.69-6.006-6.006-6.006zM88.042 407.929h156.856c3.316 0 6.006-2.69 6.006-6.006s-2.69-6.006-6.006-6.006H88.042c-3.316 0-6.006 2.69-6.006 6.006s2.69 6.006 6.006 6.006zM325.533 348.486H88.042c-3.316 0-6.006 2.69-6.006 6.006s2.69 6.006 6.006 6.006h237.491c3.316 0 6.006-2.69 6.006-6.006s-2.691-6.006-6.006-6.006zM88.042 313.065h156.856c3.316 0 6.006-2.69 6.006-6.006s-2.69-6.006-6.006-6.006H88.042c-3.316 0-6.006 2.69-6.006 6.006s2.69 6.006 6.006 6.006zM88.042 265.634h221.785c3.316 0 6.006-2.69 6.006-6.006s-2.69-6.006-6.006-6.006H88.042c-3.316 0-6.006 2.69-6.006 6.006s2.69 6.006 6.006 6.006zM88.042 218.202h156.856c3.316 0 6.006-2.69 6.006-6.006s-2.69-6.006-6.006-6.006H88.042c-3.316 0-6.006 2.69-6.006 6.006s2.69 6.006 6.006 6.006zM343.335 158.759H88.042c-3.316 0-6.006 2.69-6.006 6.006s2.69 6.006 6.006 6.006h255.293c3.316 0 6.006-2.69 6.006-6.006s-2.691-6.006-6.006-6.006z"></path><path d="M468.872 97.638 163.41 3.725c-23.018-7.143-47.238 5.766-54.251 28.621L87.19 103.879H55.886c-23.921 0-43.381 19.46-43.381 43.377v319.608c0 23.921 19.46 43.381 43.381 43.381H375.49c23.921 0 43.381-19.46 43.381-43.381v-59.212l78.715-255.778c0-.004.004-.008.004-.012 6.995-22.893-5.888-47.217-28.718-54.224zM406.86 466.864c0 17.298-14.072 31.37-31.37 31.37H55.886c-17.298 0-31.37-14.072-31.37-31.37V147.256c0-17.294 14.072-31.366 31.37-31.366h319.596c17.302 0 31.377 14.076 31.377 31.377l.001 319.597zm79.243-318.517-67.232 218.469V147.255c0-23.917-19.46-43.377-43.381-43.377H99.756l20.883-68.006c5.082-16.537 22.569-25.831 39.229-20.672l305.477 93.917c16.508 5.068 25.822 22.667 20.758 39.23z" ></path></g></svg>