<svg xmlns="http://www.w3.org/2000/svg" version="1.1" width="512" height="512" x="0" y="0" viewBox="0 0 512 512" style="enable-background:new 0 0 512 512" xml:space="preserve"><g><path d="M289.5 12c9.2 0 16.9 6.9 18.1 16l6 49.5c.5 4.4 3.5 8.2 7.6 9.8 17.5 6.8 33.8 16.2 48.4 28 2.1 1.7 4.8 2.7 7.5 2.7 1.6 0 3.2-.3 4.7-1l45.9-19.6c8.5-3.6 18.4-.4 23 7.7l33.4 58c4.6 8 2.5 18.2-4.8 23.7l-39.8 29.9c-3.5 2.7-5.3 7-4.7 11.4 2.9 18.5 2.9 37.4 0 55.9-.7 4.4 1.1 8.8 4.7 11.4l39.8 29.9c7.4 5.5 9.4 15.7 4.8 23.7l-33.4 58c-4.6 8-14.5 11.3-23 7.7l-45.9-19.6c-1.5-.7-3.1-1-4.7-1-2.7 0-5.4.9-7.5 2.7-14.6 11.8-30.9 21.2-48.4 28-4.1 1.6-7.1 5.3-7.6 9.8l-6 49.5c-1.1 9.1-8.9 16-18.1 16h-66.9c-9.2 0-17-6.9-18.1-16l-6-49.5c-.5-4.4-3.4-8.1-7.6-9.8-17.5-6.8-33.8-16.2-48.4-28-3.5-2.8-8.2-3.4-12.2-1.7l-45.9 19.6c-8.5 3.6-18.3.3-22.9-7.6L28 349c-4.6-8-2.5-18.2 4.8-23.7l39.9-29.9c3.5-2.7 5.3-7 4.6-11.4-2.9-18.5-2.9-37.4 0-55.9.7-4.4-1.1-8.8-4.7-11.4l-39.8-30c-7.3-5.5-9.4-15.7-4.8-23.7l33.5-58c4.6-8 14.5-11.3 22.9-7.7l45.9 19.6c4.1 1.7 8.8 1.1 12.3-1.7 14.6-11.8 30.9-21.2 48.4-27.9 4.1-1.6 7-5.3 7.6-9.8l6-49.5c1.1-9.1 8.9-16 18.1-16h66.8M256 340.3c46.6 0 84.3-37.8 84.3-84.3s-37.8-84.3-84.3-84.3-84.3 37.8-84.3 84.3 37.8 84.3 84.3 84.3M289.5 0h-66.9c-15.3 0-28.2 11.4-30 26.6l-6 49.5c-18.6 7.2-36 17.3-51.6 29.8L89.1 86.3c-14.1-6-30.4-.5-38 12.7l-33.5 58c-7.7 13.2-4.2 30.1 8 39.3l39.8 29.9c-3.1 19.8-3.1 39.9 0 59.6l-39.8 29.9c-12.2 9.2-15.7 26.1-8 39.3L51 413c7.6 13.2 23.9 18.7 38 12.7l45.9-19.6c15.5 12.5 33 22.6 51.6 29.8l6 49.5c1.8 15.2 14.7 26.6 30 26.6h66.9c15.3 0 28.2-11.4 30-26.6l6-49.5c18.6-7.2 36-17.3 51.6-29.8l45.9 19.6c14.1 6 30.4.5 38-12.7l33.5-58c7.7-13.2 4.2-30.1-8-39.3l-39.9-29.9c3.1-19.8 3.1-39.9 0-59.6l39.8-29.9c12.2-9.2 15.7-26.1 8-39.3L461 99c-7.6-13.2-23.9-18.7-38-12.7l-45.9 19.6c-15.5-12.5-32.9-22.6-51.6-29.8l-6-49.5C317.7 11.4 304.8 0 289.5 0zM256 328.3c-39.9 0-72.3-32.4-72.3-72.3s32.4-72.3 72.3-72.3 72.3 32.4 72.3 72.3-32.4 72.3-72.3 72.3z"></path></g></svg>