<?xml version="1.0" encoding="UTF-8" standalone="no" ?>
<!DOCTYPE svg PUBLIC "-//W3C//DTD SVG 1.1//EN" "http://www.w3.org/Graphics/SVG/1.1/DTD/svg11.dtd">
<svg xmlns="http://www.w3.org/2000/svg" xmlns:xlink="http://www.w3.org/1999/xlink" version="1.1" width="400" height="400" viewBox="0 0 400 400" xml:space="preserve">
<desc>Created with Fabric.js 3.6.2</desc>
<defs>
</defs>
<g >
<path style=" stroke-width: 1; stroke-dasharray: none; stroke-linecap: butt; stroke-dashoffset: 0; stroke-linejoin: miter; stroke-miterlimit: 4; fill-rule: nonzero; opacity: 1;"  d="M 368 224 c 26.5 0 48 -21.5 48 -48 c 0 -26.5 -21.5 -48 -48 -48 c -26.5 0 -48 21.5 -48 48 C 320 202.5 341.5 224 368 224 z" stroke-linecap="round" />
</g>
<g id="Layer_1"  >
<path style=" stroke-width: 1; stroke-dasharray: none; stroke-linecap: butt; stroke-dashoffset: 0; stroke-linejoin: miter; stroke-miterlimit: 4; fill-rule: nonzero; opacity: 1;"  d="M 452 64 H 60 c -15.6 0 -28 12.7 -28 28.3 v 327.4 c 0 15.6 12.4 28.3 28 28.3 h 392 c 15.6 0 28 -12.7 28 -28.3 V 92.3 C 480 76.7 467.6 64 452 64 z M 348.9 261.7 c -3 -3.5 -7.6 -6.2 -12.8 -6.2 c -5.1 0 -8.7 2.4 -12.8 5.7 l -18.7 15.8 c -3.9 2.8 -7 4.7 -11.5 4.7 c -4.3 0 -8.2 -1.6 -11 -4.1 c -1 -0.9 -2.8 -2.6 -4.3 -4.1 L 224 215.3 c -4 -4.6 -10 -7.5 -16.7 -7.5 c -6.7 0 -12.9 3.3 -16.8 7.8 L 64 368.2 V 107.7 c 1 -6.8 6.3 -11.7 13.1 -11.7 h 357.7 c 6.9 0 12.5 5.1 12.9 12 l 0.3 260.4 L 348.9 261.7 z" stroke-linecap="round" />
</g>
</svg>
